
<svg
   xmlns:dc="http://purl.org/dc/elements/1.1/"
   xmlns:cc="http://creativecommons.org/ns#"
   xmlns:rdf="http://www.w3.org/1999/02/22-rdf-syntax-ns#"
   xmlns:svg="http://www.w3.org/2000/svg"
   xmlns="http://www.w3.org/2000/svg"
   id="svg946"
   version="1.1"
   viewBox="0 0 20.428129 14.250983"
   height="14.250983mm"
   width="20.428129mm">
  <g
     transform="translate(-49.950986,-62.733385)"
     id="layer1">
    <path
       id="path917"
       d="m 51.725967,75.408297 c -0.38032,-0.90962 0.828981,-0.94532 1.400381,-1.0234 1.11826,-0.59315 1.95745,-1.58406 2.88204,-2.4276 2.07788,-2.04664 4.13025,-4.11899 6.1954,-6.17845 -0.44862,-0.37907 -1.10021,-0.62838 -1.26565,-1.23865 0.10914,-0.85103 1.28091,-0.52309 1.88346,-0.61923 1.77387,0.0283 3.55483,-0.004 5.32216,0.16362 0.98928,0.0217 0.44176,1.30851 -0.34991,1.07798 -0.96444,0.16933 -1.62618,0.99127 -2.34153,1.59144 -2.44603,2.33744 -4.80626,4.76259 -7.207331,7.14589 0.448861,0.37793 1.095391,0.62818 1.265691,1.23558 -0.11735,0.83295 -1.281461,0.52867 -1.88293,0.63955 -1.778711,0.006 -3.56624,0.0831 -5.338541,-0.0945 -0.19917,-0.0432 -0.4611,-0.0638 -0.56324,-0.2722 z"
       style="fill:#000000;stroke-width:0.26458332" />
  </g>
</svg>
