
<svg
   xmlns:dc="http://purl.org/dc/elements/1.1/"
   xmlns:cc="http://creativecommons.org/ns#"
   xmlns:rdf="http://www.w3.org/1999/02/22-rdf-syntax-ns#"
   xmlns:svg="http://www.w3.org/2000/svg"
   xmlns="http://www.w3.org/2000/svg"
   id="svg946"
   version="1.1"
   viewBox="0 0 20.428129 14.250983"
   height="14.250983mm"
   width="20.428129mm">

  <g
     transform="translate(-49.950986,-62.733385)"
     id="layer1">
    <path
       id="path911"
       d="m 54.258165,75.373667 c -0.13546,-0.56271 0.45623,-0.87474 0.83627,-1.16577 0.13108,-0.14539 0.44171,-0.19944 0.4056,-0.42989 0,-2.65979 0,-5.31959 0,-7.97938 -0.42954,-0.35399 -0.99812,-0.59824 -1.24409,-1.12409 -0.16481,-0.75841 0.86504,-0.67008 1.35263,-0.7231 2.75402,-0.0864 5.51023,-0.0352 8.26529,-0.049 0.20427,-0.002 0.42617,-0.0466 0.5414,0.16634 0.49989,0.53915 1.11178,0.99573 1.47276,1.64651 0.29759,0.74358 0.17284,1.57211 0.17982,2.35336 0.0273,0.56001 -0.27004,1.07923 -0.77965,1.32103 -0.20883,0.13683 -0.41767,0.27367 -0.6265,0.4105 0.47891,0.43289 1.15482,0.74319 1.33382,1.412 0.13224,0.78931 0.11874,1.60814 0.0175,2.40048 -0.18318,0.82034 -0.92856,1.30677 -1.46467,1.89665 -0.15427,0.13056 -0.2648,0.3667 -0.50102,0.29938 -2.78464,-0.0129 -5.57025,0.0344 -8.35404,-0.0447 -0.46818,-0.0699 -1.13875,0.0526 -1.43508,-0.39024 z m 7.53895,-1.20543 c 0.34943,-0.57198 0.29754,-1.29067 0.30414,-1.93976 -0.0531,-0.57949 0.004,-1.46414 -0.73045,-1.61822 -0.54712,-0.16712 -1.26421,-0.13039 -1.65694,0.32503 -0.31517,0.81974 -0.2634,1.73871 -0.15931,2.59619 -0.0121,0.66669 0.65114,0.98587 1.23715,0.94373 0.35063,-0.006 0.7366,-0.0613 1.00541,-0.30697 z m 0,-5.29166 c 0.34943,-0.57198 0.29754,-1.29067 0.30414,-1.93977 -0.0531,-0.57949 0.004,-1.46413 -0.73045,-1.61822 -0.54712,-0.16711 -1.26421,-0.13038 -1.65694,0.32504 -0.31517,0.81974 -0.2634,1.73871 -0.15931,2.59619 -0.0121,0.66669 0.65114,0.98587 1.23715,0.94373 0.35063,-0.006 0.7366,-0.0613 1.00541,-0.30697 z"
       style="fill:#000000;stroke-width:0.26458332" />
  </g>
</svg>
