
<svg
   xmlns:dc="http://purl.org/dc/elements/1.1/"
   xmlns:cc="http://creativecommons.org/ns#"
   xmlns:rdf="http://www.w3.org/1999/02/22-rdf-syntax-ns#"
   xmlns:svg="http://www.w3.org/2000/svg"
   xmlns="http://www.w3.org/2000/svg"
   id="svg946"
   version="1.1"
   viewBox="0 0 20.428129 14.250983"
   height="14.250983mm"
   width="20.428129mm">

  <g
     transform="translate(-49.950986,-62.733385)"
     id="layer1">
    <path
       id="path919"
       d="m 54.669627,76.355017 c -0.300288,-0.737514 0.585311,-0.778603 1.079503,-0.757396 2.838397,-0.105576 5.680901,-0.04371 8.519203,0.03647 0.467626,0.07389 1.509227,-0.100528 1.365691,0.643528 -0.457634,0.442678 -1.23038,0.253944 -1.824904,0.34214 -2.644718,0.05311 -5.291345,0.118944 -7.936317,0.05913 -0.377871,-0.0611 -0.964761,0.0424 -1.203176,-0.323883 z m 1.96655,-2.982825 c -0.269445,-0.282117 -0.538891,-0.564244 -0.808337,-0.846362 0,-2.560998 0,-5.121986 0,-7.682984 -0.422757,-0.356879 -1.033637,-0.591891 -1.194414,-1.164746 0.07802,-0.647354 1.00806,-0.517129 1.492861,-0.627397 1.029595,-0.05377 2.096323,-0.08846 3.091748,0.219698 0.649732,0.255938 0.03967,0.974143 -0.354821,1.173132 -0.182717,0.133101 -0.365443,0.266212 -0.548169,0.399313 0.0172,2.242782 -0.04907,4.487962 0.07201,6.728517 0.02087,0.564564 0.05969,1.389352 0.825051,1.357146 0.805846,0.09823 1.670604,0.148424 2.44054,-0.149759 0.415379,-0.454024 0.26624,-1.188238 0.353101,-1.765737 0.06844,-2.05593 0.02989,-4.113457 0.04014,-6.170167 -0.422749,-0.35687 -1.033638,-0.591891 -1.194405,-1.164746 0.07802,-0.647354 1.008059,-0.517129 1.492851,-0.627397 1.029605,-0.05377 2.096333,-0.08846 3.091758,0.219698 0.649722,0.255928 0.03967,0.974152 -0.354821,1.173132 -0.182726,0.133101 -0.365453,0.266212 -0.548179,0.399313 0,2.561816 0,5.123622 0,7.685438 -0.57482,0.57482 -1.14964,1.149639 -1.72446,1.724459 -1.788025,-0.01137 -3.576051,-0.02284 -5.364076,-0.03422 -0.269446,-0.282099 -0.538938,-0.56432 -0.808346,-0.846334 z"
       style="fill:#000000;stroke-width:0.24872072" />
  </g>
</svg>
